<?xml version="1.0" encoding="UTF-8" standalone="no"?>
<svg
   xmlns:dc="http://purl.org/dc/elements/1.1/"
   xmlns:cc="http://creativecommons.org/ns#"
   xmlns:rdf="http://www.w3.org/1999/02/22-rdf-syntax-ns#"
   xmlns:svg="http://www.w3.org/2000/svg"
   xmlns="http://www.w3.org/2000/svg"
   xmlns:sodipodi="http://sodipodi.sourceforge.net/DTD/sodipodi-0.dtd"
   xmlns:inkscape="http://www.inkscape.org/namespaces/inkscape"
   width="23.964001"
   height="21.038391"
   viewBox="0 0 47.928001 42.076782"
   version="1.1"
   id="svg8"
   sodipodi:docname="heart.svg"
   inkscape:version="0.92.4 (5da689c313, 2019-01-14)">
  <metadata
     id="metadata14">
    <rdf:RDF>
      <cc:Work
         rdf:about="">
        <dc:format>image/svg+xml</dc:format>
        <dc:type
           rdf:resource="http://purl.org/dc/dcmitype/StillImage" />
      </cc:Work>
    </rdf:RDF>
  </metadata>
  <defs
     id="defs12" />
  <sodipodi:namedview
     pagecolor="#ffffff"
     bordercolor="#666666"
     borderopacity="1"
     objecttolerance="10"
     gridtolerance="10"
     guidetolerance="10"
     inkscape:pageopacity="0"
     inkscape:pageshadow="2"
     inkscape:window-width="640"
     inkscape:window-height="480"
     id="namedview10"
     showgrid="false"
     inkscape:zoom="11.238095"
     inkscape:cx="12.001125"
     inkscape:cy="10.5"
     inkscape:window-x="0"
     inkscape:window-y="0"
     inkscape:window-maximized="0"
     inkscape:current-layer="svg8" />
  <g
     id="g6"
     transform="translate(0.00225,0.0767825)">
    <g
       id="g4">
      <path
         d="M 44.414,20.595 23.963,42 3.51,20.595 C -1.173,15.866 -1.173,8.199 3.51,3.47 a 11.912,11.912 0 0 1 16.961,0 l 3.49,4.281 3.491,-4.28 a 11.912,11.912 0 0 1 16.96,0 c 4.685,4.728 4.685,12.395 0,17.124 z M 31.436,4.17 23.954,10.78 18.473,4.17 C 15.6,1.24 8.143,0 4.072,6.17 1.812,9.594 1.2,13.85 4.072,16.78 L 23.954,38 43.837,16.78 c 2.872,-2.93 2.872,-7.68 0,-10.61 -2.872,-2.93 -9.529,-4.93 -12.401,-2 z"
         id="path2"
         inkscape:connector-curvature="0"
         style="fill:#333333" />
    </g>
  </g>
</svg>
